# xmcd
#
# Track frame offsets:
#	150
#	14579
#	30729
#	45423
#	59023
#	71787
#	87164
#	100486
#	113069
#	127784
#	141757
#	153309
#	170918
#	186319
#	197983
#	213353
#	227371
#	242163
#	255196
#	268566
#	280770
#
# Disc length: 3917 seconds
#
# Revision: 1
# Processed by: cddbd v1.5.1PL0 Copyright (c) Steve Scherf et al.
# Submitted via: audiograbber 1.83.01
#
DISCID=2c0f4b15
DTITLE=Jim MCCrary - Times
DYEAR=1988
DGENRE=country
TTITLE0=High on Leaving
TTITLE1=I'll Lay Down My Love For You
TTITLE2=The Kicker
TTITLE3=She's The Best I've Ever had
TTITLE4=Once Again The Sun Will Shine
TTITLE5=I've Gotta Remove Returning From My Mind
TTITLE6=Times Version 1
TTITLE7=Somewhere Between Love and Leaving
TTITLE8=I Ain't Got Nothing But Nothing Ain't Got Me
TTITLE9=Tuesday Morning Low
TTITLE10=Got To Boogie
TTITLE11=Variety - The Spice Of Life
TTITLE12=Cool Your Guitar Down
TTITLE13=You Once Shook ol' Willie's Hand
TTITLE14=That's When Your Memory Comes Around
TTITLE15=Riverbottom Trash
TTITLE16=You Wrote The Words To That Sad Song You Sing
TTITLE17=Next To Him
TTITLE18=Jet Plane To Houston
TTITLE19=Times - Version 2 (Guitar)
TTITLE20=She Never Really Loved The Way She Should
EXTD=
EXTT0=
EXTT1=
EXTT2=
EXTT3=
EXTT4=
EXTT5=
EXTT6=
EXTT7=
EXTT8=
EXTT9=
EXTT10=
EXTT11=
EXTT12=
EXTT13=
EXTT14=
EXTT15=
EXTT16=
EXTT17=
EXTT18=
EXTT19=
EXTT20=
PLAYORDER=
